<mxfile host="app.diagrams.net" modified="2023-08-11T23:40:16.238Z" agent="Mozilla/5.0 (Macintosh; Intel Mac OS X 10_15_7) AppleWebKit/537.36 (KHTML, like Gecko) Chrome/115.0.0.0 Safari/537.36" version="21.6.8" etag="ry6LK_VJ6Qkmwr9-tll6" type="github">
  <diagram name="第 1 页" id="wYkJQYEUc8JtZFdaXE8a">
    <mxGraphModel>
      <root>
        <mxCell id="0" />
        <mxCell id="1" parent="0" />
      </root>
    </mxGraphModel>
  </diagram>
</mxfile>
